<svg xmlns="http://www.w3.org/2000/svg" xmlns:xlink="http://www.w3.org/1999/xlink" width="500" zoomAndPan="magnify" viewBox="0 0 375 374.999991" height="500" preserveAspectRatio="xMidYMid meet" version="1.0"><defs><clipPath id="c9dfe3df35"><path d="M 26 118 L 351.347656 118 L 351.347656 306 L 26 306 Z M 26 118 " clip-rule="nonzero"/></clipPath><clipPath id="43d63ef878"><path d="M 258.011719 261 L 351.761719 261 L 351.761719 310.472656 L 258.011719 310.472656 Z M 258.011719 261 " clip-rule="nonzero"/></clipPath><clipPath id="a340e83210"><path d="M 351.761719 285.722656 C 351.761719 286.53125 351.6875 287.335938 351.535156 288.140625 C 351.386719 288.945312 351.160156 289.746094 350.859375 290.539062 C 350.5625 291.332031 350.1875 292.113281 349.742188 292.886719 C 349.296875 293.660156 348.78125 294.421875 348.195312 295.167969 C 347.605469 295.914062 346.949219 296.644531 346.226562 297.359375 C 345.503906 298.070312 344.714844 298.765625 343.863281 299.4375 C 343.007812 300.109375 342.09375 300.757812 341.121094 301.382812 C 340.148438 302.007812 339.117188 302.605469 338.03125 303.175781 C 336.945312 303.75 335.8125 304.289062 334.625 304.804688 C 333.4375 305.316406 332.207031 305.796875 330.929688 306.246094 C 329.652344 306.695312 328.335938 307.109375 326.984375 307.492188 C 325.628906 307.871094 324.242188 308.21875 322.824219 308.527344 C 321.40625 308.835938 319.964844 309.109375 318.492188 309.34375 C 317.023438 309.578125 315.539062 309.773438 314.03125 309.933594 C 312.527344 310.089844 311.007812 310.207031 309.480469 310.289062 C 307.953125 310.367188 306.421875 310.40625 304.886719 310.40625 C 303.351562 310.40625 301.820312 310.367188 300.292969 310.289062 C 298.765625 310.207031 297.246094 310.089844 295.742188 309.933594 C 294.234375 309.773438 292.75 309.578125 291.28125 309.34375 C 289.8125 309.109375 288.367188 308.835938 286.949219 308.527344 C 285.53125 308.21875 284.144531 307.871094 282.789062 307.492188 C 281.4375 307.109375 280.121094 306.695312 278.84375 306.246094 C 277.566406 305.796875 276.335938 305.316406 275.148438 304.804688 C 273.960938 304.289062 272.828125 303.75 271.742188 303.175781 C 270.65625 302.605469 269.625 302.007812 268.652344 301.382812 C 267.679688 300.757812 266.765625 300.109375 265.910156 299.4375 C 265.058594 298.765625 264.269531 298.070312 263.546875 297.359375 C 262.824219 296.644531 262.167969 295.914062 261.578125 295.167969 C 260.992188 294.421875 260.476562 293.660156 260.03125 292.886719 C 259.585938 292.113281 259.210938 291.332031 258.914062 290.539062 C 258.613281 289.746094 258.386719 288.945312 258.238281 288.140625 C 258.085938 287.335938 258.011719 286.53125 258.011719 285.722656 C 258.011719 284.914062 258.085938 284.105469 258.238281 283.300781 C 258.386719 282.496094 258.613281 281.699219 258.914062 280.90625 C 259.210938 280.113281 259.585938 279.328125 260.03125 278.554688 C 260.476562 277.78125 260.992188 277.023438 261.578125 276.273438 C 262.167969 275.527344 262.824219 274.796875 263.546875 274.085938 C 264.269531 273.371094 265.058594 272.679688 265.910156 272.007812 C 266.765625 271.335938 267.679688 270.6875 268.652344 270.0625 C 269.625 269.4375 270.65625 268.839844 271.742188 268.265625 C 272.828125 267.695312 273.960938 267.152344 275.148438 266.640625 C 276.335938 266.128906 277.566406 265.644531 278.84375 265.195312 C 280.121094 264.746094 281.4375 264.332031 282.789062 263.953125 C 284.144531 263.570312 285.53125 263.226562 286.949219 262.914062 C 288.367188 262.605469 289.8125 262.335938 291.28125 262.101562 C 292.75 261.863281 294.234375 261.667969 295.742188 261.511719 C 297.246094 261.351562 298.765625 261.234375 300.292969 261.15625 C 301.820312 261.078125 303.351562 261.035156 304.886719 261.035156 C 306.421875 261.035156 307.953125 261.078125 309.480469 261.15625 C 311.007812 261.234375 312.527344 261.351562 314.03125 261.511719 C 315.539062 261.667969 317.023438 261.863281 318.492188 262.101562 C 319.964844 262.335938 321.40625 262.605469 322.824219 262.914062 C 324.242188 263.226562 325.628906 263.570312 326.984375 263.953125 C 328.335938 264.332031 329.652344 264.746094 330.929688 265.195312 C 332.207031 265.644531 333.4375 266.128906 334.625 266.640625 C 335.8125 267.152344 336.945312 267.695312 338.03125 268.265625 C 339.117188 268.839844 340.148438 269.4375 341.121094 270.0625 C 342.09375 270.6875 343.007812 271.335938 343.863281 272.007812 C 344.714844 272.679688 345.503906 273.371094 346.226562 274.085938 C 346.949219 274.796875 347.605469 275.527344 348.195312 276.273438 C 348.78125 277.023438 349.296875 277.78125 349.742188 278.554688 C 350.1875 279.328125 350.5625 280.113281 350.859375 280.90625 C 351.160156 281.699219 351.386719 282.496094 351.535156 283.300781 C 351.6875 284.105469 351.761719 284.914062 351.761719 285.722656 Z M 351.761719 285.722656 " clip-rule="nonzero"/></clipPath><radialGradient gradientTransform="matrix(0.999211, 0, 0, 1.000789, 286.013728, 291.083491)" gradientUnits="userSpaceOnUse" r="61.60747" cx="0.141962" id="f3b8b2714e" cy="-21.348636" fx="0.141962" fy="-21.348636"><stop stop-opacity="1" stop-color="rgb(99.725342%, 99.772644%, 99.839783%)" offset="0"/><stop stop-opacity="1" stop-color="rgb(99.176025%, 99.317932%, 99.520874%)" offset="0.00390625"/><stop stop-opacity="1" stop-color="rgb(98.628235%, 98.864746%, 99.201965%)" offset="0.0078125"/><stop stop-opacity="1" stop-color="rgb(98.078918%, 98.41156%, 98.883057%)" offset="0.0117188"/><stop stop-opacity="1" stop-color="rgb(97.531128%, 97.958374%, 98.565674%)" offset="0.015625"/><stop stop-opacity="1" stop-color="rgb(96.981812%, 97.505188%, 98.246765%)" offset="0.0195312"/><stop stop-opacity="1" stop-color="rgb(96.434021%, 97.052002%, 97.927856%)" offset="0.0234375"/><stop stop-opacity="1" stop-color="rgb(95.88623%, 96.59729%, 97.608948%)" offset="0.0273438"/><stop stop-opacity="1" stop-color="rgb(95.336914%, 96.144104%, 97.290039%)" offset="0.03125"/><stop stop-opacity="1" stop-color="rgb(94.789124%, 95.690918%, 96.972656%)" offset="0.0351562"/><stop stop-opacity="1" stop-color="rgb(94.239807%, 95.237732%, 96.653748%)" offset="0.0390625"/><stop stop-opacity="1" stop-color="rgb(93.692017%, 94.784546%, 96.334839%)" offset="0.0429688"/><stop stop-opacity="1" stop-color="rgb(93.1427%, 94.33136%, 96.01593%)" offset="0.046875"/><stop stop-opacity="1" stop-color="rgb(92.59491%, 93.876648%, 95.697021%)" offset="0.0507812"/><stop stop-opacity="1" stop-color="rgb(92.047119%, 93.423462%, 95.379639%)" offset="0.0546875"/><stop stop-opacity="1" stop-color="rgb(91.497803%, 92.970276%, 95.06073%)" offset="0.0585938"/><stop stop-opacity="1" stop-color="rgb(90.950012%, 92.51709%, 94.741821%)" offset="0.0625"/><stop stop-opacity="1" stop-color="rgb(90.400696%, 92.063904%, 94.422913%)" offset="0.0664062"/><stop stop-opacity="1" stop-color="rgb(89.852905%, 91.610718%, 94.104004%)" offset="0.0703125"/><stop stop-opacity="1" stop-color="rgb(89.303589%, 91.156006%, 93.786621%)" offset="0.0742188"/><stop stop-opacity="1" stop-color="rgb(88.755798%, 90.70282%, 93.467712%)" offset="0.078125"/><stop stop-opacity="1" stop-color="rgb(88.208008%, 90.249634%, 93.148804%)" offset="0.0820312"/><stop stop-opacity="1" stop-color="rgb(87.658691%, 89.796448%, 92.829895%)" offset="0.0859375"/><stop stop-opacity="1" stop-color="rgb(87.110901%, 89.343262%, 92.510986%)" offset="0.0898438"/><stop stop-opacity="1" stop-color="rgb(86.561584%, 88.890076%, 92.193604%)" offset="0.09375"/><stop stop-opacity="1" stop-color="rgb(86.013794%, 88.435364%, 91.874695%)" offset="0.0976562"/><stop stop-opacity="1" stop-color="rgb(85.464478%, 87.982178%, 91.555786%)" offset="0.101562"/><stop stop-opacity="1" stop-color="rgb(84.916687%, 87.528992%, 91.236877%)" offset="0.105469"/><stop stop-opacity="1" stop-color="rgb(84.368896%, 87.075806%, 90.917969%)" offset="0.109375"/><stop stop-opacity="1" stop-color="rgb(83.81958%, 86.62262%, 90.600586%)" offset="0.113281"/><stop stop-opacity="1" stop-color="rgb(83.27179%, 86.169434%, 90.281677%)" offset="0.117188"/><stop stop-opacity="1" stop-color="rgb(82.722473%, 85.714722%, 89.962769%)" offset="0.121094"/><stop stop-opacity="1" stop-color="rgb(82.174683%, 85.261536%, 89.64386%)" offset="0.125"/><stop stop-opacity="1" stop-color="rgb(81.626892%, 84.80835%, 89.326477%)" offset="0.128906"/><stop stop-opacity="1" stop-color="rgb(81.077576%, 84.355164%, 89.007568%)" offset="0.132812"/><stop stop-opacity="1" stop-color="rgb(80.529785%, 83.901978%, 88.68866%)" offset="0.136719"/><stop stop-opacity="1" stop-color="rgb(79.980469%, 83.448792%, 88.369751%)" offset="0.140625"/><stop stop-opacity="1" stop-color="rgb(79.432678%, 82.99408%, 88.050842%)" offset="0.144531"/><stop stop-opacity="1" stop-color="rgb(78.883362%, 82.540894%, 87.733459%)" offset="0.148438"/><stop stop-opacity="1" stop-color="rgb(78.335571%, 82.087708%, 87.414551%)" offset="0.152344"/><stop stop-opacity="1" stop-color="rgb(77.787781%, 81.634521%, 87.095642%)" offset="0.15625"/><stop stop-opacity="1" stop-color="rgb(77.238464%, 81.181335%, 86.776733%)" offset="0.160156"/><stop stop-opacity="1" stop-color="rgb(76.690674%, 80.728149%, 86.457825%)" offset="0.164062"/><stop stop-opacity="1" stop-color="rgb(76.141357%, 80.273438%, 86.140442%)" offset="0.167969"/><stop stop-opacity="1" stop-color="rgb(75.593567%, 79.820251%, 85.821533%)" offset="0.171875"/><stop stop-opacity="1" stop-color="rgb(75.04425%, 79.367065%, 85.502625%)" offset="0.175781"/><stop stop-opacity="1" stop-color="rgb(74.49646%, 78.913879%, 85.183716%)" offset="0.179688"/><stop stop-opacity="1" stop-color="rgb(73.948669%, 78.460693%, 84.864807%)" offset="0.183594"/><stop stop-opacity="1" stop-color="rgb(73.399353%, 78.007507%, 84.547424%)" offset="0.1875"/><stop stop-opacity="1" stop-color="rgb(72.851562%, 77.552795%, 84.228516%)" offset="0.191406"/><stop stop-opacity="1" stop-color="rgb(72.302246%, 77.099609%, 83.909607%)" offset="0.195312"/><stop stop-opacity="1" stop-color="rgb(71.754456%, 76.646423%, 83.590698%)" offset="0.199219"/><stop stop-opacity="1" stop-color="rgb(71.205139%, 76.193237%, 83.27179%)" offset="0.203125"/><stop stop-opacity="1" stop-color="rgb(70.657349%, 75.740051%, 82.954407%)" offset="0.207031"/><stop stop-opacity="1" stop-color="rgb(70.109558%, 75.286865%, 82.635498%)" offset="0.210938"/><stop stop-opacity="1" stop-color="rgb(69.560242%, 74.832153%, 82.316589%)" offset="0.214844"/><stop stop-opacity="1" stop-color="rgb(69.012451%, 74.378967%, 81.997681%)" offset="0.21875"/><stop stop-opacity="1" stop-color="rgb(68.463135%, 73.925781%, 81.678772%)" offset="0.222656"/><stop stop-opacity="1" stop-color="rgb(67.915344%, 73.472595%, 81.361389%)" offset="0.226562"/><stop stop-opacity="1" stop-color="rgb(67.366028%, 73.019409%, 81.04248%)" offset="0.230469"/><stop stop-opacity="1" stop-color="rgb(66.818237%, 72.566223%, 80.723572%)" offset="0.234375"/><stop stop-opacity="1" stop-color="rgb(66.270447%, 72.111511%, 80.404663%)" offset="0.238281"/><stop stop-opacity="1" stop-color="rgb(65.72113%, 71.658325%, 80.08728%)" offset="0.242188"/><stop stop-opacity="1" stop-color="rgb(65.17334%, 71.205139%, 79.768372%)" offset="0.246094"/><stop stop-opacity="1" stop-color="rgb(64.624023%, 70.751953%, 79.449463%)" offset="0.25"/><stop stop-opacity="1" stop-color="rgb(64.076233%, 70.298767%, 79.130554%)" offset="0.253906"/><stop stop-opacity="1" stop-color="rgb(63.528442%, 69.845581%, 78.811646%)" offset="0.257812"/><stop stop-opacity="1" stop-color="rgb(62.979126%, 69.390869%, 78.494263%)" offset="0.261719"/><stop stop-opacity="1" stop-color="rgb(62.431335%, 68.937683%, 78.175354%)" offset="0.265625"/><stop stop-opacity="1" stop-color="rgb(61.882019%, 68.484497%, 77.856445%)" offset="0.269531"/><stop stop-opacity="1" stop-color="rgb(61.334229%, 68.031311%, 77.537537%)" offset="0.273438"/><stop stop-opacity="1" stop-color="rgb(60.784912%, 67.578125%, 77.218628%)" offset="0.277344"/><stop stop-opacity="1" stop-color="rgb(60.237122%, 67.124939%, 76.901245%)" offset="0.28125"/><stop stop-opacity="1" stop-color="rgb(59.689331%, 66.670227%, 76.582336%)" offset="0.285156"/><stop stop-opacity="1" stop-color="rgb(59.140015%, 66.217041%, 76.263428%)" offset="0.289062"/><stop stop-opacity="1" stop-color="rgb(58.592224%, 65.763855%, 75.944519%)" offset="0.292969"/><stop stop-opacity="1" stop-color="rgb(58.042908%, 65.310669%, 75.62561%)" offset="0.296875"/><stop stop-opacity="1" stop-color="rgb(57.495117%, 64.857483%, 75.308228%)" offset="0.300781"/><stop stop-opacity="1" stop-color="rgb(56.945801%, 64.404297%, 74.989319%)" offset="0.304688"/><stop stop-opacity="1" stop-color="rgb(56.39801%, 63.949585%, 74.67041%)" offset="0.308594"/><stop stop-opacity="1" stop-color="rgb(55.85022%, 63.496399%, 74.351501%)" offset="0.3125"/><stop stop-opacity="1" stop-color="rgb(55.300903%, 63.043213%, 74.032593%)" offset="0.316406"/><stop stop-opacity="1" stop-color="rgb(54.753113%, 62.590027%, 73.71521%)" offset="0.320312"/><stop stop-opacity="1" stop-color="rgb(54.203796%, 62.136841%, 73.396301%)" offset="0.324219"/><stop stop-opacity="1" stop-color="rgb(53.656006%, 61.683655%, 73.077393%)" offset="0.328125"/><stop stop-opacity="1" stop-color="rgb(53.106689%, 61.228943%, 72.758484%)" offset="0.332031"/><stop stop-opacity="1" stop-color="rgb(52.558899%, 60.775757%, 72.439575%)" offset="0.335938"/><stop stop-opacity="1" stop-color="rgb(52.011108%, 60.322571%, 72.122192%)" offset="0.339844"/><stop stop-opacity="1" stop-color="rgb(51.461792%, 59.869385%, 71.803284%)" offset="0.34375"/><stop stop-opacity="1" stop-color="rgb(50.914001%, 59.416199%, 71.484375%)" offset="0.347656"/><stop stop-opacity="1" stop-color="rgb(50.364685%, 58.963013%, 71.165466%)" offset="0.351562"/><stop stop-opacity="1" stop-color="rgb(49.816895%, 58.509827%, 70.846558%)" offset="0.355469"/><stop stop-opacity="1" stop-color="rgb(49.267578%, 58.055115%, 70.529175%)" offset="0.359375"/><stop stop-opacity="1" stop-color="rgb(48.719788%, 57.601929%, 70.210266%)" offset="0.363281"/><stop stop-opacity="1" stop-color="rgb(48.171997%, 57.148743%, 69.891357%)" offset="0.367188"/><stop stop-opacity="1" stop-color="rgb(47.622681%, 56.695557%, 69.572449%)" offset="0.371094"/><stop stop-opacity="1" stop-color="rgb(47.07489%, 56.242371%, 69.255066%)" offset="0.375"/><stop stop-opacity="1" stop-color="rgb(46.525574%, 55.789185%, 68.936157%)" offset="0.378906"/><stop stop-opacity="1" stop-color="rgb(45.977783%, 55.334473%, 68.617249%)" offset="0.382812"/><stop stop-opacity="1" stop-color="rgb(45.429993%, 54.881287%, 68.29834%)" offset="0.386719"/><stop stop-opacity="1" stop-color="rgb(44.880676%, 54.428101%, 67.979431%)" offset="0.390625"/><stop stop-opacity="1" stop-color="rgb(44.332886%, 53.974915%, 67.662048%)" offset="0.394531"/><stop stop-opacity="1" stop-color="rgb(43.783569%, 53.521729%, 67.34314%)" offset="0.398438"/><stop stop-opacity="1" stop-color="rgb(43.235779%, 53.068542%, 67.024231%)" offset="0.402344"/><stop stop-opacity="1" stop-color="rgb(42.686462%, 52.613831%, 66.705322%)" offset="0.40625"/><stop stop-opacity="1" stop-color="rgb(42.138672%, 52.160645%, 66.386414%)" offset="0.410156"/><stop stop-opacity="1" stop-color="rgb(41.590881%, 51.707458%, 66.069031%)" offset="0.414062"/><stop stop-opacity="1" stop-color="rgb(41.041565%, 51.254272%, 65.750122%)" offset="0.417969"/><stop stop-opacity="1" stop-color="rgb(40.493774%, 50.801086%, 65.431213%)" offset="0.421875"/><stop stop-opacity="1" stop-color="rgb(39.944458%, 50.3479%, 65.112305%)" offset="0.425781"/><stop stop-opacity="1" stop-color="rgb(39.396667%, 49.893188%, 64.793396%)" offset="0.429688"/><stop stop-opacity="1" stop-color="rgb(38.847351%, 49.440002%, 64.476013%)" offset="0.433594"/><stop stop-opacity="1" stop-color="rgb(38.299561%, 48.986816%, 64.157104%)" offset="0.4375"/><stop stop-opacity="1" stop-color="rgb(37.75177%, 48.53363%, 63.838196%)" offset="0.441406"/><stop stop-opacity="1" stop-color="rgb(37.202454%, 48.080444%, 63.519287%)" offset="0.445312"/><stop stop-opacity="1" stop-color="rgb(36.654663%, 47.627258%, 63.200378%)" offset="0.449219"/><stop stop-opacity="1" stop-color="rgb(36.105347%, 47.172546%, 62.882996%)" offset="0.453125"/><stop stop-opacity="1" stop-color="rgb(35.557556%, 46.71936%, 62.564087%)" offset="0.457031"/><stop stop-opacity="1" stop-color="rgb(35.00824%, 46.266174%, 62.245178%)" offset="0.460938"/><stop stop-opacity="1" stop-color="rgb(34.460449%, 45.812988%, 61.92627%)" offset="0.464844"/><stop stop-opacity="1" stop-color="rgb(33.912659%, 45.359802%, 61.607361%)" offset="0.46875"/><stop stop-opacity="1" stop-color="rgb(33.363342%, 44.906616%, 61.289978%)" offset="0.472656"/><stop stop-opacity="1" stop-color="rgb(32.815552%, 44.451904%, 60.971069%)" offset="0.476562"/><stop stop-opacity="1" stop-color="rgb(32.266235%, 43.998718%, 60.652161%)" offset="0.480469"/><stop stop-opacity="1" stop-color="rgb(31.718445%, 43.545532%, 60.333252%)" offset="0.484375"/><stop stop-opacity="1" stop-color="rgb(31.170654%, 43.092346%, 60.015869%)" offset="0.488281"/><stop stop-opacity="1" stop-color="rgb(30.621338%, 42.63916%, 59.69696%)" offset="0.492188"/><stop stop-opacity="1" stop-color="rgb(30.073547%, 42.185974%, 59.378052%)" offset="0.496094"/><stop stop-opacity="1" stop-color="rgb(29.736328%, 41.842651%, 59.036255%)" offset="0.5"/><stop stop-opacity="1" stop-color="rgb(29.611206%, 41.609192%, 58.67157%)" offset="0.503906"/><stop stop-opacity="1" stop-color="rgb(29.484558%, 41.377258%, 58.306885%)" offset="0.507812"/><stop stop-opacity="1" stop-color="rgb(29.359436%, 41.143799%, 57.9422%)" offset="0.511719"/><stop stop-opacity="1" stop-color="rgb(29.234314%, 40.911865%, 57.577515%)" offset="0.515625"/><stop stop-opacity="1" stop-color="rgb(29.109192%, 40.678406%, 57.21283%)" offset="0.519531"/><stop stop-opacity="1" stop-color="rgb(28.982544%, 40.444946%, 56.848145%)" offset="0.523438"/><stop stop-opacity="1" stop-color="rgb(28.857422%, 40.213013%, 56.483459%)" offset="0.527344"/><stop stop-opacity="1" stop-color="rgb(28.7323%, 39.979553%, 56.118774%)" offset="0.53125"/><stop stop-opacity="1" stop-color="rgb(28.605652%, 39.74762%, 55.754089%)" offset="0.535156"/><stop stop-opacity="1" stop-color="rgb(28.48053%, 39.51416%, 55.389404%)" offset="0.539062"/><stop stop-opacity="1" stop-color="rgb(28.355408%, 39.280701%, 55.026245%)" offset="0.542969"/><stop stop-opacity="1" stop-color="rgb(28.230286%, 39.048767%, 54.66156%)" offset="0.546875"/><stop stop-opacity="1" stop-color="rgb(28.103638%, 38.815308%, 54.296875%)" offset="0.550781"/><stop stop-opacity="1" stop-color="rgb(27.978516%, 38.583374%, 53.93219%)" offset="0.554688"/><stop stop-opacity="1" stop-color="rgb(27.853394%, 38.349915%, 53.567505%)" offset="0.558594"/><stop stop-opacity="1" stop-color="rgb(27.726746%, 38.117981%, 53.20282%)" offset="0.5625"/><stop stop-opacity="1" stop-color="rgb(27.601624%, 37.884521%, 52.838135%)" offset="0.566406"/><stop stop-opacity="1" stop-color="rgb(27.476501%, 37.651062%, 52.47345%)" offset="0.570312"/><stop stop-opacity="1" stop-color="rgb(27.351379%, 37.419128%, 52.108765%)" offset="0.574219"/><stop stop-opacity="1" stop-color="rgb(27.224731%, 37.185669%, 51.74408%)" offset="0.578125"/><stop stop-opacity="1" stop-color="rgb(27.099609%, 36.953735%, 51.379395%)" offset="0.582031"/><stop stop-opacity="1" stop-color="rgb(26.974487%, 36.720276%, 51.014709%)" offset="0.585938"/><stop stop-opacity="1" stop-color="rgb(26.849365%, 36.488342%, 50.650024%)" offset="0.589844"/><stop stop-opacity="1" stop-color="rgb(26.722717%, 36.254883%, 50.285339%)" offset="0.59375"/><stop stop-opacity="1" stop-color="rgb(26.597595%, 36.021423%, 49.920654%)" offset="0.597656"/><stop stop-opacity="1" stop-color="rgb(26.472473%, 35.78949%, 49.555969%)" offset="0.601562"/><stop stop-opacity="1" stop-color="rgb(26.345825%, 35.55603%, 49.191284%)" offset="0.605469"/><stop stop-opacity="1" stop-color="rgb(26.220703%, 35.324097%, 48.826599%)" offset="0.609375"/><stop stop-opacity="1" stop-color="rgb(26.095581%, 35.090637%, 48.461914%)" offset="0.613281"/><stop stop-opacity="1" stop-color="rgb(25.970459%, 34.858704%, 48.097229%)" offset="0.617188"/><stop stop-opacity="1" stop-color="rgb(25.843811%, 34.625244%, 47.73407%)" offset="0.621094"/><stop stop-opacity="1" stop-color="rgb(25.718689%, 34.391785%, 47.369385%)" offset="0.625"/><stop stop-opacity="1" stop-color="rgb(25.593567%, 34.159851%, 47.0047%)" offset="0.628906"/><stop stop-opacity="1" stop-color="rgb(25.466919%, 33.926392%, 46.640015%)" offset="0.632812"/><stop stop-opacity="1" stop-color="rgb(25.341797%, 33.694458%, 46.27533%)" offset="0.636719"/><stop stop-opacity="1" stop-color="rgb(25.216675%, 33.460999%, 45.910645%)" offset="0.640625"/><stop stop-opacity="1" stop-color="rgb(25.091553%, 33.229065%, 45.545959%)" offset="0.644531"/><stop stop-opacity="1" stop-color="rgb(24.964905%, 32.995605%, 45.181274%)" offset="0.648438"/><stop stop-opacity="1" stop-color="rgb(24.839783%, 32.762146%, 44.816589%)" offset="0.652344"/><stop stop-opacity="1" stop-color="rgb(24.714661%, 32.530212%, 44.451904%)" offset="0.65625"/><stop stop-opacity="1" stop-color="rgb(24.589539%, 32.296753%, 44.087219%)" offset="0.660156"/><stop stop-opacity="1" stop-color="rgb(24.462891%, 32.064819%, 43.722534%)" offset="0.664062"/><stop stop-opacity="1" stop-color="rgb(24.337769%, 31.83136%, 43.357849%)" offset="0.667969"/><stop stop-opacity="1" stop-color="rgb(24.212646%, 31.5979%, 42.993164%)" offset="0.671875"/><stop stop-opacity="1" stop-color="rgb(24.085999%, 31.365967%, 42.628479%)" offset="0.675781"/><stop stop-opacity="1" stop-color="rgb(23.960876%, 31.132507%, 42.263794%)" offset="0.679688"/><stop stop-opacity="1" stop-color="rgb(23.835754%, 30.900574%, 41.899109%)" offset="0.683594"/><stop stop-opacity="1" stop-color="rgb(23.710632%, 30.667114%, 41.534424%)" offset="0.6875"/><stop stop-opacity="1" stop-color="rgb(23.583984%, 30.435181%, 41.169739%)" offset="0.691406"/><stop stop-opacity="1" stop-color="rgb(23.458862%, 30.201721%, 40.805054%)" offset="0.695312"/><stop stop-opacity="1" stop-color="rgb(23.33374%, 29.968262%, 40.440369%)" offset="0.699219"/><stop stop-opacity="1" stop-color="rgb(23.207092%, 29.736328%, 40.077209%)" offset="0.703125"/><stop stop-opacity="1" stop-color="rgb(23.08197%, 29.502869%, 39.712524%)" offset="0.707031"/><stop stop-opacity="1" stop-color="rgb(22.956848%, 29.270935%, 39.347839%)" offset="0.710938"/><stop stop-opacity="1" stop-color="rgb(22.831726%, 29.037476%, 38.983154%)" offset="0.714844"/><stop stop-opacity="1" stop-color="rgb(22.705078%, 28.805542%, 38.618469%)" offset="0.71875"/><stop stop-opacity="1" stop-color="rgb(22.579956%, 28.572083%, 38.253784%)" offset="0.722656"/><stop stop-opacity="1" stop-color="rgb(22.454834%, 28.338623%, 37.889099%)" offset="0.726562"/><stop stop-opacity="1" stop-color="rgb(22.329712%, 28.106689%, 37.524414%)" offset="0.730469"/><stop stop-opacity="1" stop-color="rgb(22.203064%, 27.87323%, 37.159729%)" offset="0.734375"/><stop stop-opacity="1" stop-color="rgb(22.077942%, 27.641296%, 36.795044%)" offset="0.738281"/><stop stop-opacity="1" stop-color="rgb(21.95282%, 27.407837%, 36.430359%)" offset="0.742188"/><stop stop-opacity="1" stop-color="rgb(21.826172%, 27.175903%, 36.065674%)" offset="0.746094"/><stop stop-opacity="1" stop-color="rgb(21.70105%, 26.942444%, 35.700989%)" offset="0.75"/><stop stop-opacity="1" stop-color="rgb(21.575928%, 26.708984%, 35.336304%)" offset="0.753906"/><stop stop-opacity="1" stop-color="rgb(21.450806%, 26.477051%, 34.971619%)" offset="0.757812"/><stop stop-opacity="1" stop-color="rgb(21.324158%, 26.243591%, 34.606934%)" offset="0.761719"/><stop stop-opacity="1" stop-color="rgb(21.199036%, 26.011658%, 34.242249%)" offset="0.765625"/><stop stop-opacity="1" stop-color="rgb(21.073914%, 25.778198%, 33.877563%)" offset="0.769531"/><stop stop-opacity="1" stop-color="rgb(20.947266%, 25.546265%, 33.512878%)" offset="0.773438"/><stop stop-opacity="1" stop-color="rgb(20.822144%, 25.312805%, 33.148193%)" offset="0.777344"/><stop stop-opacity="1" stop-color="rgb(20.697021%, 25.079346%, 32.785034%)" offset="0.78125"/><stop stop-opacity="1" stop-color="rgb(20.571899%, 24.847412%, 32.420349%)" offset="0.785156"/><stop stop-opacity="1" stop-color="rgb(20.445251%, 24.613953%, 32.055664%)" offset="0.789062"/><stop stop-opacity="1" stop-color="rgb(20.320129%, 24.382019%, 31.690979%)" offset="0.792969"/><stop stop-opacity="1" stop-color="rgb(20.195007%, 24.14856%, 31.326294%)" offset="0.796875"/><stop stop-opacity="1" stop-color="rgb(20.069885%, 23.9151%, 30.961609%)" offset="0.800781"/><stop stop-opacity="1" stop-color="rgb(19.943237%, 23.683167%, 30.596924%)" offset="0.804688"/><stop stop-opacity="1" stop-color="rgb(19.818115%, 23.449707%, 30.232239%)" offset="0.808594"/><stop stop-opacity="1" stop-color="rgb(19.692993%, 23.217773%, 29.867554%)" offset="0.8125"/><stop stop-opacity="1" stop-color="rgb(19.566345%, 22.984314%, 29.502869%)" offset="0.816406"/><stop stop-opacity="1" stop-color="rgb(19.441223%, 22.75238%, 29.138184%)" offset="0.820312"/><stop stop-opacity="1" stop-color="rgb(19.316101%, 22.518921%, 28.773499%)" offset="0.824219"/><stop stop-opacity="1" stop-color="rgb(19.190979%, 22.285461%, 28.408813%)" offset="0.828125"/><stop stop-opacity="1" stop-color="rgb(19.064331%, 22.053528%, 28.044128%)" offset="0.832031"/><stop stop-opacity="1" stop-color="rgb(18.939209%, 21.820068%, 27.679443%)" offset="0.835938"/><stop stop-opacity="1" stop-color="rgb(18.814087%, 21.588135%, 27.314758%)" offset="0.839844"/><stop stop-opacity="1" stop-color="rgb(18.687439%, 21.354675%, 26.950073%)" offset="0.84375"/><stop stop-opacity="1" stop-color="rgb(18.562317%, 21.122742%, 26.585388%)" offset="0.847656"/><stop stop-opacity="1" stop-color="rgb(18.437195%, 20.889282%, 26.220703%)" offset="0.851562"/><stop stop-opacity="1" stop-color="rgb(18.312073%, 20.655823%, 25.856018%)" offset="0.855469"/><stop stop-opacity="1" stop-color="rgb(18.185425%, 20.423889%, 25.492859%)" offset="0.859375"/><stop stop-opacity="1" stop-color="rgb(18.060303%, 20.19043%, 25.128174%)" offset="0.863281"/><stop stop-opacity="1" stop-color="rgb(17.935181%, 19.958496%, 24.763489%)" offset="0.867188"/><stop stop-opacity="1" stop-color="rgb(17.810059%, 19.725037%, 24.398804%)" offset="0.871094"/><stop stop-opacity="1" stop-color="rgb(17.683411%, 19.493103%, 24.034119%)" offset="0.875"/><stop stop-opacity="1" stop-color="rgb(17.558289%, 19.259644%, 23.669434%)" offset="0.878906"/><stop stop-opacity="1" stop-color="rgb(17.433167%, 19.026184%, 23.304749%)" offset="0.882812"/><stop stop-opacity="1" stop-color="rgb(17.306519%, 18.79425%, 22.940063%)" offset="0.886719"/><stop stop-opacity="1" stop-color="rgb(17.181396%, 18.560791%, 22.575378%)" offset="0.890625"/><stop stop-opacity="1" stop-color="rgb(17.056274%, 18.328857%, 22.210693%)" offset="0.894531"/><stop stop-opacity="1" stop-color="rgb(16.931152%, 18.095398%, 21.846008%)" offset="0.898438"/><stop stop-opacity="1" stop-color="rgb(16.804504%, 17.863464%, 21.481323%)" offset="0.902344"/><stop stop-opacity="1" stop-color="rgb(16.679382%, 17.630005%, 21.116638%)" offset="0.90625"/><stop stop-opacity="1" stop-color="rgb(16.55426%, 17.396545%, 20.751953%)" offset="0.910156"/><stop stop-opacity="1" stop-color="rgb(16.427612%, 17.164612%, 20.387268%)" offset="0.914062"/><stop stop-opacity="1" stop-color="rgb(16.30249%, 16.931152%, 20.022583%)" offset="0.917969"/><stop stop-opacity="1" stop-color="rgb(16.177368%, 16.699219%, 19.657898%)" offset="0.921875"/><stop stop-opacity="1" stop-color="rgb(16.052246%, 16.465759%, 19.293213%)" offset="0.925781"/><stop stop-opacity="1" stop-color="rgb(15.925598%, 16.2323%, 18.928528%)" offset="0.929688"/><stop stop-opacity="1" stop-color="rgb(15.800476%, 16.000366%, 18.563843%)" offset="0.933594"/><stop stop-opacity="1" stop-color="rgb(15.675354%, 15.766907%, 18.200684%)" offset="0.9375"/><stop stop-opacity="1" stop-color="rgb(15.548706%, 15.534973%, 17.835999%)" offset="0.941406"/><stop stop-opacity="1" stop-color="rgb(15.423584%, 15.301514%, 17.471313%)" offset="0.945312"/><stop stop-opacity="1" stop-color="rgb(15.298462%, 15.06958%, 17.106628%)" offset="0.949219"/><stop stop-opacity="1" stop-color="rgb(15.17334%, 14.836121%, 16.741943%)" offset="0.953125"/><stop stop-opacity="1" stop-color="rgb(15.046692%, 14.602661%, 16.377258%)" offset="0.957031"/><stop stop-opacity="1" stop-color="rgb(14.92157%, 14.370728%, 16.012573%)" offset="0.960938"/><stop stop-opacity="1" stop-color="rgb(14.796448%, 14.137268%, 15.647888%)" offset="0.964844"/><stop stop-opacity="1" stop-color="rgb(14.671326%, 13.905334%, 15.283203%)" offset="0.96875"/><stop stop-opacity="1" stop-color="rgb(14.544678%, 13.671875%, 14.918518%)" offset="0.972656"/><stop stop-opacity="1" stop-color="rgb(14.419556%, 13.439941%, 14.553833%)" offset="0.976562"/><stop stop-opacity="1" stop-color="rgb(14.294434%, 13.206482%, 14.189148%)" offset="0.980469"/><stop stop-opacity="1" stop-color="rgb(14.167786%, 12.973022%, 13.824463%)" offset="0.984375"/><stop stop-opacity="1" stop-color="rgb(14.042664%, 12.741089%, 13.459778%)" offset="0.988281"/><stop stop-opacity="1" stop-color="rgb(13.917542%, 12.507629%, 13.095093%)" offset="0.992188"/><stop stop-opacity="1" stop-color="rgb(13.792419%, 12.275696%, 12.730408%)" offset="0.996094"/><stop stop-opacity="1" stop-color="rgb(13.729858%, 12.159729%, 12.548828%)" offset="1"/></radialGradient></defs><g clip-path="url(#c9dfe3df35)"><path fill="#303263" d="M 145.078125 305.058594 C 104.015625 305.058594 69.984375 291.941406 49.074219 268.175781 C 30.632812 246.882812 23.597656 218.9375 28.351562 185.097656 C 28.730469 182.246094 31.011719 180.15625 33.863281 180.15625 L 260.667969 180.15625 C 258.386719 175.972656 256.863281 171.601562 255.914062 167.226562 C 252.300781 149.925781 258.195312 131.867188 271.121094 120.269531 C 272.644531 118.75 274.925781 118.367188 276.824219 118.9375 C 292.796875 124.261719 304.960938 137.378906 309.335938 153.539062 C 312.945312 152.777344 316.75 152.207031 320.550781 152.207031 C 330.628906 152.207031 340.511719 155.25 348.6875 161.144531 C 350.398438 162.285156 351.347656 164.1875 351.160156 166.277344 C 349.636719 183.765625 338.800781 199.355469 323.023438 206.769531 C 316.558594 209.8125 309.714844 211.332031 302.492188 211.523438 C 282.148438 272.359375 207.054688 305.058594 145.078125 305.058594 Z M 90.328125 252.398438 C 97.171875 252.398438 102.875 246.695312 102.875 239.847656 C 102.875 232.816406 97.171875 227.113281 90.328125 227.113281 C 83.292969 227.113281 77.589844 232.816406 77.589844 239.847656 C 77.589844 246.695312 83.292969 252.398438 90.328125 252.398438 Z M 90.328125 233.574219 C 93.75 233.574219 96.410156 236.238281 96.410156 239.847656 C 96.410156 243.269531 93.75 245.933594 90.328125 245.933594 C 86.714844 245.933594 84.054688 243.269531 84.054688 239.847656 C 84.054688 236.238281 86.714844 233.574219 90.328125 233.574219 Z M 90.328125 269.125 C 106.488281 269.125 119.605469 256.007812 119.605469 239.847656 C 119.605469 223.5 106.488281 210.382812 90.328125 210.382812 C 73.976562 210.382812 60.859375 223.5 60.859375 239.847656 C 60.859375 256.007812 73.976562 269.125 90.328125 269.125 Z M 90.328125 216.65625 C 102.875 216.65625 113.332031 227.113281 113.332031 239.847656 C 113.332031 252.585938 102.875 262.851562 90.328125 262.851562 C 77.589844 262.851562 67.132812 252.585938 67.132812 239.847656 C 67.132812 227.113281 77.589844 216.65625 90.328125 216.65625 Z M 167.894531 279.773438 C 180.25 279.773438 194.316406 277.109375 205.914062 272.929688 C 227.585938 265.132812 244.886719 251.257812 255.34375 230.535156 C 256.105469 229.011719 255.535156 227.113281 254.011719 226.351562 C 252.300781 225.589844 250.402344 226.160156 249.640625 227.683594 C 239.375 248.214844 221.3125 261.332031 199.832031 268.175781 C 189.945312 271.21875 177.589844 273.5 167.132812 273.5 L 166.941406 273.5 C 165.230469 273.308594 163.902344 274.828125 163.902344 276.539062 C 163.710938 278.25 165.230469 279.773438 166.941406 279.773438 C 167.324219 279.773438 167.511719 279.773438 167.894531 279.773438 Z M 250.210938 207.722656 C 251.921875 207.722656 253.253906 206.390625 253.253906 204.679688 C 253.253906 202.777344 251.921875 201.445312 250.210938 201.445312 L 142.417969 201.445312 C 140.707031 201.445312 139.375 202.777344 139.375 204.679688 C 139.375 206.390625 140.707031 207.722656 142.417969 207.722656 Z M 250.210938 207.722656 " fill-opacity="1" fill-rule="evenodd"/></g><path fill="#4066ef" d="M 38.808594 173.691406 L 38.808594 145.554688 C 38.808594 142.324219 41.28125 139.851562 44.511719 139.851562 L 76.640625 139.851562 L 76.640625 173.691406 Z M 123.597656 139.851562 L 159.148438 139.851562 L 159.148438 173.691406 L 123.597656 173.691406 Z M 165.421875 173.691406 L 165.421875 139.851562 L 199.832031 139.851562 L 199.832031 173.691406 Z M 206.105469 173.691406 L 206.105469 139.851562 L 243.746094 139.851562 C 246.789062 139.851562 249.449219 142.324219 249.449219 145.554688 L 249.449219 173.691406 Z M 206.105469 173.691406 " fill-opacity="1" fill-rule="evenodd"/><path fill="#4066ef" d="M 70.367188 133.386719 L 70.367188 108.484375 C 70.367188 105.441406 72.835938 102.78125 76.070312 102.78125 L 117.324219 102.78125 L 117.324219 133.386719 Z M 123.597656 102.78125 L 159.148438 102.78125 L 159.148438 133.386719 L 123.597656 133.386719 Z M 165.421875 102.78125 L 199.832031 102.78125 L 199.832031 133.386719 L 165.421875 133.386719 Z M 165.421875 102.78125 " fill-opacity="1" fill-rule="evenodd"/><path fill="#4066ef" d="M 165.421875 69.890625 L 199.832031 69.890625 L 199.832031 96.507812 L 165.421875 96.507812 Z M 165.421875 69.890625 " fill-opacity="1" fill-rule="evenodd"/><path fill="#4066ef" d="M 82.914062 139.851562 L 117.324219 139.851562 L 117.324219 173.691406 L 82.914062 173.691406 Z M 82.914062 139.851562 " fill-opacity="1" fill-rule="evenodd"/><g clip-path="url(#43d63ef878)"><g clip-path="url(#a340e83210)"><path fill="url(#f3b8b2714e)" d="M 258.011719 261.035156 L 258.011719 310.40625 L 351.761719 310.40625 L 351.761719 261.035156 Z M 258.011719 261.035156 " fill-rule="nonzero"/></g></g><path fill="#6181b6" d="M 349.929688 285.722656 C 349.929688 286.46875 349.859375 287.214844 349.714844 287.960938 C 349.570312 288.707031 349.351562 289.445312 349.066406 290.179688 C 348.777344 290.914062 348.417969 291.640625 347.992188 292.355469 C 347.5625 293.070312 347.066406 293.773438 346.5 294.464844 C 345.9375 295.15625 345.308594 295.832031 344.613281 296.492188 C 343.917969 297.152344 343.160156 297.792969 342.339844 298.417969 C 341.519531 299.039062 340.640625 299.640625 339.707031 300.21875 C 338.769531 300.796875 337.78125 301.351562 336.738281 301.878906 C 335.695312 302.410156 334.601562 302.910156 333.460938 303.386719 C 332.320312 303.859375 331.136719 304.304688 329.910156 304.722656 C 328.683594 305.136719 327.421875 305.523438 326.121094 305.875 C 324.820312 306.226562 323.488281 306.546875 322.125 306.832031 C 320.761719 307.121094 319.375 307.371094 317.960938 307.589844 C 316.550781 307.804688 315.121094 307.988281 313.675781 308.132812 C 312.226562 308.28125 310.769531 308.390625 309.300781 308.460938 C 307.832031 308.535156 306.363281 308.574219 304.886719 308.574219 C 303.410156 308.574219 301.941406 308.535156 300.472656 308.460938 C 299.003906 308.390625 297.546875 308.28125 296.097656 308.132812 C 294.652344 307.988281 293.222656 307.804688 291.8125 307.589844 C 290.398438 307.371094 289.011719 307.121094 287.648438 306.832031 C 286.285156 306.546875 284.953125 306.226562 283.652344 305.875 C 282.351562 305.523438 281.089844 305.136719 279.863281 304.722656 C 278.636719 304.304688 277.453125 303.859375 276.3125 303.386719 C 275.171875 302.910156 274.078125 302.410156 273.035156 301.878906 C 271.992188 301.351562 271.003906 300.796875 270.066406 300.21875 C 269.132812 299.640625 268.253906 299.039062 267.433594 298.417969 C 266.613281 297.792969 265.855469 297.152344 265.160156 296.492188 C 264.464844 295.832031 263.835938 295.15625 263.273438 294.464844 C 262.707031 293.773438 262.210938 293.070312 261.78125 292.355469 C 261.355469 291.640625 260.996094 290.914062 260.707031 290.179688 C 260.421875 289.445312 260.203125 288.707031 260.058594 287.960938 C 259.914062 287.214844 259.84375 286.46875 259.84375 285.722656 C 259.84375 284.972656 259.914062 284.226562 260.058594 283.480469 C 260.203125 282.738281 260.421875 281.996094 260.707031 281.265625 C 260.996094 280.53125 261.355469 279.804688 261.78125 279.089844 C 262.210938 278.371094 262.707031 277.667969 263.273438 276.976562 C 263.835938 276.285156 264.464844 275.609375 265.160156 274.949219 C 265.855469 274.289062 266.613281 273.648438 267.433594 273.027344 C 268.253906 272.402344 269.132812 271.804688 270.066406 271.226562 C 271.003906 270.648438 271.992188 270.09375 273.035156 269.5625 C 274.078125 269.035156 275.171875 268.53125 276.3125 268.058594 C 277.453125 267.582031 278.636719 267.136719 279.863281 266.722656 C 281.089844 266.304688 282.351562 265.921875 283.652344 265.570312 C 284.953125 265.214844 286.285156 264.898438 287.648438 264.609375 C 289.011719 264.324219 290.398438 264.070312 291.8125 263.855469 C 293.222656 263.636719 294.652344 263.457031 296.097656 263.308594 C 297.546875 263.164062 299.003906 263.054688 300.472656 262.980469 C 301.941406 262.90625 303.410156 262.871094 304.886719 262.871094 C 306.363281 262.871094 307.832031 262.90625 309.300781 262.980469 C 310.769531 263.054688 312.226562 263.164062 313.675781 263.308594 C 315.121094 263.457031 316.550781 263.636719 317.960938 263.855469 C 319.375 264.070312 320.761719 264.324219 322.125 264.609375 C 323.488281 264.898438 324.820312 265.214844 326.121094 265.570312 C 327.421875 265.921875 328.683594 266.304688 329.910156 266.722656 C 331.136719 267.136719 332.320312 267.582031 333.460938 268.058594 C 334.601562 268.53125 335.695312 269.035156 336.738281 269.5625 C 337.78125 270.09375 338.769531 270.648438 339.707031 271.226562 C 340.640625 271.804688 341.519531 272.402344 342.339844 273.027344 C 343.160156 273.648438 343.917969 274.289062 344.613281 274.949219 C 345.308594 275.609375 345.9375 276.285156 346.5 276.976562 C 347.066406 277.667969 347.5625 278.371094 347.992188 279.089844 C 348.417969 279.804688 348.777344 280.53125 349.066406 281.265625 C 349.351562 281.996094 349.570312 282.738281 349.714844 283.480469 C 349.859375 284.226562 349.929688 284.972656 349.929688 285.722656 Z M 349.929688 285.722656 " fill-opacity="1" fill-rule="nonzero"/><path fill="#ffffff" d="M 314.003906 293.132812 L 316.238281 281.613281 C 316.753906 279.007812 316.3125 277.066406 314.996094 275.855469 C 313.710938 274.679688 311.515625 274.09375 308.292969 274.09375 L 304.410156 274.09375 L 305.507812 268.371094 C 305.546875 268.152344 305.507812 267.933594 305.363281 267.75 C 305.214844 267.566406 305.035156 267.492188 304.8125 267.492188 L 299.46875 267.492188 C 299.101562 267.492188 298.808594 267.75 298.734375 268.078125 L 296.355469 280.292969 C 296.132812 278.898438 295.621094 277.726562 294.742188 276.773438 C 293.167969 274.976562 290.714844 274.058594 287.382812 274.058594 L 277.089844 274.058594 C 276.726562 274.058594 276.433594 274.316406 276.359375 274.644531 L 271.5625 299.441406 C 271.523438 299.660156 271.5625 299.878906 271.707031 300.0625 C 271.855469 300.246094 272.039062 300.320312 272.257812 300.320312 L 277.640625 300.320312 C 278.007812 300.320312 278.300781 300.0625 278.375 299.734375 L 279.546875 293.753906 L 283.535156 293.753906 C 285.625 293.753906 287.417969 293.535156 288.773438 293.09375 C 290.203125 292.617188 291.484375 291.847656 292.617188 290.785156 C 293.535156 289.941406 294.304688 288.984375 294.890625 287.960938 L 293.9375 292.910156 C 293.902344 293.132812 293.9375 293.351562 294.082031 293.535156 C 294.230469 293.71875 294.414062 293.792969 294.632812 293.792969 L 299.980469 293.792969 C 300.347656 293.792969 300.640625 293.535156 300.710938 293.203125 L 303.347656 279.632812 L 307.011719 279.632812 C 308.585938 279.632812 309.023438 279.925781 309.171875 280.074219 C 309.28125 280.183594 309.5 280.625 309.246094 281.980469 L 307.121094 292.949219 C 307.085938 293.167969 307.121094 293.386719 307.265625 293.570312 C 307.414062 293.753906 307.597656 293.828125 307.816406 293.828125 L 313.308594 293.828125 C 313.640625 293.71875 313.933594 293.460938 314.003906 293.132812 Z M 289.25 283.59375 C 288.921875 285.316406 288.296875 286.566406 287.382812 287.261719 C 286.464844 287.960938 284.964844 288.324219 282.988281 288.324219 L 280.605469 288.324219 L 282.328125 279.449219 L 285.40625 279.449219 C 287.675781 279.449219 288.589844 279.925781 288.957031 280.328125 C 289.433594 280.917969 289.542969 282.054688 289.25 283.59375 Z M 289.25 283.59375 " fill-opacity="1" fill-rule="nonzero"/><path fill="#ffffff" d="M 336.855469 276.773438 C 335.28125 274.976562 332.828125 274.058594 329.496094 274.058594 L 319.132812 274.058594 C 318.765625 274.058594 318.472656 274.316406 318.398438 274.644531 L 313.601562 299.402344 C 313.566406 299.625 313.601562 299.84375 313.75 300.027344 C 313.894531 300.210938 314.078125 300.285156 314.296875 300.285156 L 319.683594 300.285156 C 320.046875 300.285156 320.339844 300.027344 320.414062 299.695312 L 321.585938 293.71875 L 325.578125 293.71875 C 327.664062 293.71875 329.460938 293.496094 330.816406 293.058594 C 332.242188 292.582031 333.523438 291.808594 334.660156 290.746094 C 335.613281 289.867188 336.417969 288.875 337.003906 287.8125 C 337.589844 286.75 338.027344 285.574219 338.285156 284.292969 C 338.90625 281.101562 338.433594 278.605469 336.855469 276.773438 Z M 331.253906 283.59375 C 330.925781 285.316406 330.300781 286.566406 329.386719 287.261719 C 328.472656 287.960938 326.96875 288.324219 324.992188 288.324219 L 322.613281 288.324219 L 324.332031 279.449219 L 327.410156 279.449219 C 329.679688 279.449219 330.59375 279.925781 330.960938 280.328125 C 331.472656 280.917969 331.582031 282.054688 331.253906 283.59375 Z M 331.253906 283.59375 " fill-opacity="1" fill-rule="nonzero"/><path fill="#000004" d="M 285.40625 278.714844 C 287.457031 278.714844 288.808594 279.082031 289.507812 279.851562 C 290.203125 280.625 290.347656 281.90625 289.980469 283.742188 C 289.617188 285.648438 288.882812 287.042969 287.820312 287.847656 C 286.757812 288.65625 285.148438 289.058594 282.988281 289.058594 L 279.726562 289.058594 L 281.742188 278.714844 Z M 272.292969 299.550781 L 277.675781 299.550781 L 278.960938 292.984375 L 283.574219 292.984375 C 285.625 292.984375 287.273438 292.765625 288.589844 292.324219 C 289.910156 291.882812 291.082031 291.1875 292.179688 290.160156 C 293.09375 289.316406 293.828125 288.398438 294.375 287.410156 C 294.925781 286.417969 295.328125 285.316406 295.546875 284.109375 C 296.132812 281.171875 295.695312 278.898438 294.265625 277.25 C 292.839844 275.597656 290.566406 274.792969 287.457031 274.792969 L 277.089844 274.792969 Z M 272.292969 299.550781 " fill-opacity="1" fill-rule="nonzero"/><path fill="#000004" d="M 299.503906 268.226562 L 304.851562 268.226562 L 303.570312 274.792969 L 308.328125 274.792969 C 311.332031 274.792969 313.382812 275.304688 314.519531 276.367188 C 315.652344 277.433594 315.984375 279.121094 315.542969 281.46875 L 313.308594 292.984375 L 307.890625 292.984375 L 310.015625 282.015625 C 310.269531 280.769531 310.160156 279.925781 309.757812 279.488281 C 309.355469 279.046875 308.4375 278.789062 307.085938 278.789062 L 302.800781 278.789062 L 300.054688 292.984375 L 294.707031 292.984375 Z M 299.503906 268.226562 " fill-opacity="1" fill-rule="nonzero"/><path fill="#000004" d="M 327.410156 278.714844 C 329.460938 278.714844 330.816406 279.082031 331.511719 279.851562 C 332.207031 280.625 332.351562 281.90625 331.988281 283.742188 C 331.621094 285.648438 330.886719 287.042969 329.824219 287.847656 C 328.765625 288.65625 327.152344 289.058594 324.992188 289.058594 L 321.734375 289.058594 L 323.746094 278.714844 Z M 314.296875 299.550781 L 319.683594 299.550781 L 320.964844 292.984375 L 325.578125 292.984375 C 327.628906 292.984375 329.277344 292.765625 330.59375 292.324219 C 331.914062 291.882812 333.085938 291.1875 334.183594 290.160156 C 335.097656 289.316406 335.832031 288.398438 336.382812 287.410156 C 336.929688 286.417969 337.332031 285.316406 337.554688 284.109375 C 338.140625 281.171875 337.699219 278.898438 336.269531 277.25 C 334.84375 275.597656 332.574219 274.792969 329.460938 274.792969 L 319.097656 274.792969 Z M 314.296875 299.550781 " fill-opacity="1" fill-rule="nonzero"/></svg>